<svg width="112" height="113" viewBox="0 0 110 113" fill="none" xmlns="http://www.w3.org/2000/svg">
<path fill-rule="evenodd" clip-rule="evenodd" d="M19.9831 111.472C19.4937 111.963 18.8695 112.297 18.1898 112.432C17.5101 112.568 16.8054 112.499 16.1651 112.233C15.5248 111.968 14.9778 111.518 14.5933 110.942C14.2088 110.365 14.0042 109.687 14.0055 108.994V98.4945H3.50607C2.81296 98.4958 2.13509 98.2912 1.5584 97.9067C0.981712 97.5222 0.532166 96.9752 0.266759 96.3349C0.00135074 95.6946 -0.0679671 94.9899 0.0675928 94.3102C0.203153 93.6305 0.537486 93.0063 1.02821 92.5169L11.5276 82.0174C11.8532 81.6926 12.2397 81.4352 12.6648 81.2599C13.09 81.0845 13.5456 80.9947 14.0055 80.9955H26.5558L48.2756 59.2687C48.9327 58.6115 49.824 58.2424 50.7534 58.2424C51.6828 58.2424 52.5741 58.6115 53.2313 59.2687C53.8885 59.9259 54.2576 60.8172 54.2576 61.7466C54.2576 62.676 53.8885 63.5673 53.2313 64.2244L31.5045 85.9442V98.4945C31.5053 98.9544 31.4155 99.41 31.2401 99.8352C31.0648 100.26 30.8074 100.647 30.4826 100.972L19.9831 111.472ZM112 24.9986C112.001 25.6917 111.797 26.3696 111.412 26.9463C111.028 27.523 110.481 27.9725 109.84 28.2379C109.2 28.5033 108.495 28.5727 107.816 28.4371C107.136 28.3015 106.512 27.9672 106.022 27.4765L98.0008 19.4479L90.9592 26.4895C92.6111 28.2255 94.039 30.2063 95.1589 32.4042C99.0927 40.0758 99.2537 50.0222 93.668 61.0466C88.1173 71.987 76.904 84.0613 57.935 96.6046L56.0031 97.8786L54.0712 96.6046C49.4207 93.5486 44.9259 90.2616 40.604 86.7562L58.173 69.1662C60.1427 67.1965 61.2492 64.5251 61.2492 61.7396C61.2492 58.9541 60.1427 56.2826 58.173 54.313C56.2034 52.3433 53.5319 51.2368 50.7464 51.2368C47.9609 51.2368 45.2895 52.3433 43.3198 54.313L25.6038 72.036C22.7948 68.6426 20.3567 64.9585 18.3312 61.0466C12.7456 50.0152 12.9065 40.0688 16.8403 32.3972C23.9869 18.454 43.2638 13.1623 56.0031 23.1297C64.7526 16.2701 76.61 16.6341 85.4855 22.0658L93.0451 14.4992L85.0305 6.47767C84.5402 5.98861 84.206 5.36509 84.0702 4.68602C83.9345 4.00695 84.0032 3.30287 84.2677 2.66287C84.5323 2.02288 84.9807 1.47576 85.5563 1.09075C86.132 0.705737 86.8089 0.500147 87.5014 0.5L108.5 0.5C109.428 0.5 110.319 0.868728 110.975 1.52507C111.631 2.18141 112 3.0716 112 3.9998V24.9986Z" fill="#8190A0"/>
</svg>
