<svg width="24" height="26" viewBox="0 0 24 26" fill="none" xmlns="http://www.w3.org/2000/svg">
<path d="M23.6026 4.28023L20.5912 1.26886C20.3324 1.02207 19.9885 0.884399 19.6309 0.884399C19.2732 0.884399 18.9293 1.02207 18.6705 1.26886L15.9928 3.95468H1.62777C1.19606 3.95468 0.782027 4.12617 0.476762 4.43144C0.171496 4.7367 0 5.15073 0 5.58244V23.4879C0 23.9196 0.171496 24.3336 0.476762 24.6389C0.782027 24.9441 1.19606 25.1156 1.62777 25.1156H19.5332C19.9649 25.1156 20.3789 24.9441 20.6842 24.6389C20.9895 24.3336 21.161 23.9196 21.161 23.4879V8.64264L23.6026 6.20099C23.8571 5.94616 24 5.60074 24 5.24061C24 4.88048 23.8571 4.53507 23.6026 4.28023ZM12.0699 15.4548L8.65972 16.2118L9.4736 12.8341L17.2462 5.04528L19.875 7.67412L12.0699 15.4548ZM20.754 6.7463L18.1252 4.11745L19.6309 2.61177L22.2597 5.24061L20.754 6.7463Z" fill="#000C18"/>
</svg>
