<svg width="17" height="16" viewBox="0 0 17 16" fill="none" xmlns="http://www.w3.org/2000/svg">
<path d="M8.5 0C10.6217 0 12.6566 0.842855 14.1569 2.34315C15.6571 3.84344 16.5 5.87827 16.5 8C16.5 10.1217 15.6571 12.1566 14.1569 13.6569C12.6566 15.1571 10.6217 16 8.5 16C6.37827 16 4.34344 15.1571 2.84315 13.6569C1.34285 12.1566 0.5 10.1217 0.5 8C0.5 5.87827 1.34285 3.84344 2.84315 2.34315C4.34344 0.842855 6.37827 0 8.5 0ZM7.81429 7.31429H5.18571C5.00385 7.31429 4.82944 7.38653 4.70084 7.51513C4.57225 7.64372 4.5 7.81814 4.5 8C4.5 8.18186 4.57225 8.35628 4.70084 8.48487C4.82944 8.61347 5.00385 8.68571 5.18571 8.68571H7.81429V11.3143C7.81429 11.4961 7.88653 11.6706 8.01513 11.7992C8.14372 11.9278 8.31814 12 8.5 12C8.68186 12 8.85628 11.9278 8.98487 11.7992C9.11347 11.6706 9.18571 11.4961 9.18571 11.3143V8.68571H11.8143C11.9961 8.68571 12.1706 8.61347 12.2992 8.48487C12.4278 8.35628 12.5 8.18186 12.5 8C12.5 7.81814 12.4278 7.64372 12.2992 7.51513C12.1706 7.38653 11.9961 7.31429 11.8143 7.31429H9.18571V4.68571C9.18571 4.50385 9.11347 4.32944 8.98487 4.20084C8.85628 4.07225 8.68186 4 8.5 4C8.31814 4 8.14372 4.07225 8.01513 4.20084C7.88653 4.32944 7.81429 4.50385 7.81429 4.68571V7.31429Z" fill="white"/>
</svg>
