<svg width="16" height="16" viewBox="0 0 16 16" fill="none" xmlns="http://www.w3.org/2000/svg">
<path d="M14.1733 8.55815H11.6287V7.25581H14.1733V8.55815ZM14.1733 9.30232H11.6287V10.6047H14.1733V9.30232ZM14.1733 3.16279H11.6287V4.4651H14.1733V3.16279ZM14.1733 5.2093H11.6287V6.51161H14.1733V5.2093ZM14.1733 11.3488H11.6287V12.6512H14.1733V11.3488V11.3488ZM15.9309 13.9163C15.8582 14.3033 15.4038 14.3126 15.1003 14.3256H9.44768V16H8.31897L0 14.5116V1.49024L8.36806 0H9.44768V1.48279H14.9058C15.213 1.49581 15.5511 1.47348 15.8182 1.66138C16.0054 1.93673 15.9873 2.28651 16 2.60278L15.9927 12.2884C15.9837 12.8298 16.0418 13.3823 15.9309 13.9163ZM6.66497 10.9972C6.16334 9.95538 5.65262 8.92093 5.15278 7.87905C5.64715 6.86511 6.13428 5.84745 6.61956 4.82976C6.20697 4.85023 5.79437 4.87627 5.38362 4.90605C5.07644 5.67069 4.71837 6.41488 4.47847 7.20558C4.2549 6.45953 3.95865 5.74138 3.68784 5.01395C3.28797 5.03627 2.88809 5.06046 2.48825 5.08464C2.90991 6.03723 3.35887 6.97671 3.76781 7.93487C3.28615 8.86511 2.83541 9.80839 2.36828 10.7442C2.76631 10.7609 3.16437 10.7777 3.56241 10.7833C3.84597 10.0428 4.19856 9.33024 4.44575 8.57488C4.6675 9.38606 5.04372 10.1358 5.35272 10.9116C5.79075 10.9433 6.22694 10.9712 6.66497 10.9972ZM15.1331 2.36639H9.44768V3.16279H10.9017V4.4651H9.44768V5.2093H10.9017V6.51161H9.44768V7.25581H10.9017V8.55815H9.44768V9.30232H10.9017V10.6047H9.44768V11.3488H10.9017V12.6512H9.44768V13.5115H15.1331V2.36639Z" fill="white"/>
</svg>
