<svg width="24" height="25" viewBox="0 0 24 25" fill="none" xmlns="http://www.w3.org/2000/svg">
<path d="M23.7666 10.1498H22.8V10.1H12V14.9H18.7818C17.7924 17.6942 15.1338 19.7 12 19.7C8.0238 19.7 4.8 16.4762 4.8 12.5C4.8 8.5238 8.0238 5.3 12 5.3C13.8354 5.3 15.5052 5.9924 16.7766 7.1234L20.1708 3.7292C18.0276 1.7318 15.1608 0.5 12 0.5C5.373 0.5 0 5.873 0 12.5C0 19.127 5.373 24.5 12 24.5C18.627 24.5 24 19.127 24 12.5C24 11.6954 23.9172 10.91 23.7666 10.1498Z" fill="#FFC107"/>
<path d="M1.38361 6.9146L5.32621 9.806C6.39301 7.1648 8.97661 5.3 12 5.3C13.8354 5.3 15.5052 5.9924 16.7766 7.1234L20.1708 3.7292C18.0276 1.7318 15.1608 0.5 12 0.5C7.39081 0.5 3.39361 3.1022 1.38361 6.9146Z" fill="#FF3D00"/>
<path d="M12 24.5C15.0996 24.5 17.916 23.3138 20.0454 21.3848L16.3314 18.242C15.0861 19.1891 13.5645 19.7013 12 19.7C8.87882 19.7 6.22862 17.7098 5.23022 14.9324L1.31702 17.9474C3.30302 21.8336 7.33622 24.5 12 24.5Z" fill="#4CAF50"/>
<path d="M23.7666 10.1498H22.8V10.1H12V14.9H18.7818C18.3085 16.2298 17.456 17.3919 16.3296 18.2426L16.3314 18.2414L20.0454 21.3842C19.7826 21.623 24 18.5 24 12.5C24 11.6954 23.9172 10.91 23.7666 10.1498Z" fill="#1976D2"/>
</svg>
