<svg width="80" height="183" viewBox="0 0 80 183" fill="none" xmlns="http://www.w3.org/2000/svg">
<path d="M40 40.3125C51.0457 40.3125 60 31.4002 60 20.4062C60 9.41233 51.0457 0.5 40 0.5C28.9543 0.5 20 9.41233 20 20.4062C20 31.4002 28.9543 40.3125 40 40.3125Z" fill="#000C18"/>
<path d="M57.1429 46H22.8571C16.8006 46.0178 10.9971 48.4204 6.71448 52.683C2.43181 56.9456 0.0179009 62.7218 0 68.75V106.97C0 110.827 3.01072 114.108 6.88214 114.246C7.84156 114.281 8.7982 114.123 9.69489 113.782C10.5916 113.441 11.4099 112.923 12.101 112.259C12.7921 111.596 13.3418 110.801 13.7171 109.921C14.0925 109.042 14.2859 108.096 14.2857 107.141V71.6897C14.2766 70.9561 14.5465 70.2461 15.0413 69.7022C15.5361 69.1583 16.2192 68.8207 16.9536 68.7571C17.3444 68.7313 17.7364 68.7857 18.1052 68.917C18.474 69.0483 18.8117 69.2537 19.0974 69.5204C19.3831 69.7871 19.6106 70.1094 19.7659 70.4673C19.9212 70.8252 20.0009 71.211 20 71.6009V174.324C20 176.493 20.8654 178.572 22.4059 180.105C23.9464 181.639 26.0357 182.5 28.2143 182.5C30.3928 182.5 32.4822 181.639 34.0227 180.105C35.5631 178.572 36.4286 176.493 36.4286 174.324V123.613C36.4159 122.695 36.7523 121.806 37.3702 121.125C37.9881 120.443 38.842 120.019 39.7607 119.938C40.2495 119.905 40.7397 119.973 41.201 120.137C41.6623 120.3 42.0848 120.557 42.4422 120.891C42.7997 121.224 43.0843 121.627 43.2786 122.075C43.4729 122.522 43.5725 123.005 43.5714 123.492V174.324C43.5714 176.493 44.4369 178.572 45.9773 180.105C47.5178 181.639 49.6071 182.5 51.7857 182.5C53.9643 182.5 56.0536 181.639 57.5941 180.105C59.1346 178.572 60 176.493 60 174.324V71.6897C59.9909 70.9561 60.2608 70.2461 60.7556 69.7022C61.2504 69.1583 61.9335 68.8207 62.6679 68.7571C63.0587 68.7313 63.4506 68.7857 63.8194 68.917C64.1882 69.0483 64.526 69.2537 64.8117 69.5204C65.0974 69.7871 65.3249 70.1094 65.4802 70.4673C65.6355 70.8252 65.7151 71.211 65.7143 71.6009V106.977C65.7143 110.834 68.725 114.115 72.5964 114.254C73.5564 114.288 74.5137 114.13 75.4109 113.788C76.308 113.447 77.1267 112.928 77.8179 112.264C78.5091 111.6 79.0586 110.804 79.4335 109.924C79.8084 109.043 80.0011 108.097 80 107.141V68.75C79.9821 62.7218 77.5682 56.9456 73.2855 52.683C69.0028 48.4204 63.1994 46.0178 57.1429 46Z" fill="#000C18"/>
</svg>
