<svg width="100" height="183" viewBox="0 0 100 183" fill="none" xmlns="http://www.w3.org/2000/svg">
<path d="M49.8213 40.3125C60.8152 40.3125 69.7275 31.4002 69.7275 20.4062C69.7275 9.41233 60.8152 0.5 49.8213 0.5C38.8274 0.5 29.915 9.41233 29.915 20.4062C29.915 31.4002 38.8274 40.3125 49.8213 40.3125Z" fill="#045AB3"/>
<path d="M99.1889 99.2848L95.5169 87.0531V87.014L87.5331 60.4036H87.5153L86.6231 57.3999C85.6436 54.1062 83.6266 51.217 80.8724 49.1622C78.1182 47.1075 74.7741 45.9971 71.3379 45.9965H28.6816C25.245 45.9954 21.9001 47.1051 19.1455 49.1601C16.391 51.2151 14.3744 54.1054 13.3965 57.3999L12.5043 60.4036H12.4829L4.4991 87.014V87.0531L0.812886 99.2848C-0.296176 102.978 1.63046 106.984 5.28113 108.221C6.18552 108.529 7.1427 108.652 8.09547 108.581C9.04824 108.511 9.97707 108.249 10.8265 107.812C11.6759 107.375 12.4284 106.771 13.0392 106.036C13.6499 105.301 14.1063 104.451 14.3811 103.536L23.474 73.2325L24.2454 70.6624C24.4706 70.0343 24.9096 69.5054 25.4854 69.1683C26.0613 68.8312 26.7373 68.7073 27.3953 68.8183C28.0533 68.9293 28.6512 69.2681 29.0846 69.7755C29.518 70.2829 29.7591 70.9265 29.7658 71.5938C29.7656 71.7861 29.7454 71.9779 29.7054 72.1661L14.1607 123.99C13.9058 124.839 13.853 125.736 14.0064 126.609C14.1598 127.482 14.5153 128.308 15.0443 129.019C15.5734 129.73 16.2615 130.308 17.0536 130.707C17.8457 131.105 18.7199 131.312 19.6065 131.313H29.9151V172.081C29.9151 177.932 33.6582 182.5 38.4464 182.5C43.2345 182.5 46.9776 177.932 46.9776 172.081V131.313H52.6651V172.081C52.6651 177.932 56.4082 182.5 61.1964 182.5C65.9845 182.5 69.7276 177.932 69.7276 172.081V131.313H80.3917C81.2786 131.313 82.1532 131.106 82.9458 130.708C83.7384 130.31 84.4269 129.732 84.9564 129.02C85.4858 128.309 85.8416 127.484 85.9952 126.61C86.1488 125.737 86.096 124.839 85.841 123.99L70.2928 72.159C70.2538 71.9731 70.2348 71.7836 70.2359 71.5938C70.2396 70.9245 70.4791 70.2779 70.9125 69.7679C71.3458 69.2578 71.9452 68.917 72.6051 68.8053C73.265 68.6936 73.9432 68.8183 74.5202 69.1573C75.0973 69.4963 75.5363 70.0281 75.7599 70.6589L76.5313 73.2289L85.6206 103.533C85.8966 104.446 86.3537 105.295 86.9647 106.028C87.5757 106.761 88.328 107.364 89.1769 107.8C90.0258 108.236 90.9538 108.497 91.9056 108.567C92.8574 108.637 93.8136 108.515 94.7171 108.207C98.3677 106.984 100.294 102.978 99.1889 99.2848Z" fill="#045AB3"/>
</svg>
