<svg width="24" height="22" viewBox="0 0 24 22" fill="none" xmlns="http://www.w3.org/2000/svg">
<path d="M2.28572 21.2857C1.65714 21.2857 1.11886 21.0617 0.670859 20.6137C0.222859 20.1657 -0.000759964 19.6278 1.94034e-06 19V6.42858C1.94034e-06 6.10477 0.109716 5.83315 0.329145 5.61373C0.548573 5.3943 0.819811 5.28496 1.14286 5.28573C1.46667 5.28573 1.73829 5.39544 1.95772 5.61487C2.17714 5.8343 2.28648 6.10553 2.28572 6.42858V19H18.2857C18.6095 19 18.8811 19.1097 19.1006 19.3292C19.32 19.5486 19.4293 19.8198 19.4286 20.1429C19.4286 20.4667 19.3189 20.7383 19.0994 20.9577C18.88 21.1772 18.6088 21.2865 18.2857 21.2857H2.28572ZM6.85714 16.7143C6.22857 16.7143 5.69029 16.4903 5.24229 16.0423C4.79429 15.5943 4.57067 15.0564 4.57143 14.4286V1.85716C4.57143 1.53335 4.68114 1.26173 4.90057 1.0423C5.12 0.82287 5.39124 0.713536 5.71429 0.714298H22.8571C23.1809 0.714298 23.4526 0.824013 23.672 1.04344C23.8914 1.26287 24.0008 1.53411 24 1.85716V14.4286C24 15.0572 23.776 15.5954 23.328 16.0434C22.88 16.4914 22.3421 16.7151 21.7143 16.7143H6.85714ZM10.2857 11H12.5714C12.8952 11 13.1669 10.8903 13.3863 10.6709C13.6057 10.4514 13.715 10.1802 13.7143 9.85715V6.42858C13.7143 6.10477 13.6046 5.83315 13.3851 5.61373C13.1657 5.3943 12.8945 5.28496 12.5714 5.28573H10.2857C9.9619 5.28573 9.69029 5.39544 9.47086 5.61487C9.25143 5.8343 9.14209 6.10553 9.14286 6.42858V9.85715C9.14286 10.181 9.25257 10.4526 9.472 10.672C9.69143 10.8914 9.96267 11.0008 10.2857 11ZM16 11H18.2857C18.6095 11 18.8811 10.8903 19.1006 10.6709C19.32 10.4514 19.4293 10.1802 19.4286 9.85715C19.4286 9.53334 19.3189 9.26172 19.0994 9.0423C18.88 8.82287 18.6088 8.71353 18.2857 8.7143H16C15.6762 8.7143 15.4046 8.82401 15.1851 9.04344C14.9657 9.26287 14.8564 9.53411 14.8571 9.85715C14.8571 10.181 14.9669 10.4526 15.1863 10.672C15.4057 10.8914 15.677 11.0008 16 11ZM16 7.57144H18.2857C18.6095 7.57144 18.8811 7.46172 19.1006 7.2423C19.32 7.02287 19.4293 6.75163 19.4286 6.42858C19.4286 6.10477 19.3189 5.83315 19.0994 5.61373C18.88 5.3943 18.6088 5.28496 18.2857 5.28573H16C15.6762 5.28573 15.4046 5.39544 15.1851 5.61487C14.9657 5.8343 14.8564 6.10553 14.8571 6.42858C14.8571 6.75239 14.9669 7.02401 15.1863 7.24344C15.4057 7.46287 15.677 7.5722 16 7.57144Z" fill="#000C18"/>
</svg>
