<svg width="27" height="28" viewBox="0 0 27 28" fill="none" xmlns="http://www.w3.org/2000/svg">
<path d="M16.2683 9.50951L11.0483 0.929512C10.7083 0.349512 10.0983 -0.000488281 9.42835 -0.000488281H2.83835C1.38835 -0.000488281 0.478349 1.55951 1.18835 2.81951C2.50799 5.15423 4.3705 7.1368 6.61835 8.59951C7.37835 9.18951 8.31835 9.50951 9.28835 9.50951H16.2683Z" fill="#0074BA"/>
<path d="M24.1573 -0.000488281H17.5673C16.8973 -0.000488281 16.2873 0.349512 15.9473 0.929512L10.7273 9.50951H17.7173C18.6873 9.50951 19.6173 9.18951 20.3873 8.59951C22.6373 7.13951 24.4973 5.15951 25.8173 2.81951C26.5173 1.55951 25.6073 -0.000488281 24.1573 -0.000488281Z" fill="#00A6ED"/>
<path d="M13.4604 28.0005C19.0054 28.0005 23.5004 23.3935 23.5004 17.7105C23.5004 12.0275 19.0054 7.42053 13.4604 7.42053C7.91541 7.42053 3.42041 12.0275 3.42041 17.7105C3.42041 23.3935 7.91541 28.0005 13.4604 28.0005Z" fill="#BEBEBE"/>
<path d="M13.4605 26.7605C11.1005 26.7605 8.88047 25.8205 7.22047 24.1105C5.54977 22.4004 4.61936 20.1013 4.63047 17.7105C4.63047 15.2905 5.55047 13.0205 7.22047 11.3105C8.03076 10.4731 9.00119 9.80726 10.074 9.3525C11.1469 8.89774 12.3002 8.66339 13.4655 8.66339C14.6307 8.66339 15.7841 8.89774 16.8569 9.3525C17.9298 9.80726 18.9002 10.4731 19.7105 11.3105C23.1505 14.8405 23.1505 20.5805 19.7105 24.1105C18.0305 25.8205 15.8105 26.7605 13.4605 26.7605ZM13.4505 9.89054C11.5005 9.89054 9.54047 10.6505 8.06047 12.1805C6.62076 13.6601 5.81991 15.6461 5.83047 17.7105C5.83047 19.8005 6.62047 21.7605 8.06047 23.2405C8.75853 23.9654 9.59573 24.5418 10.5219 24.9353C11.4481 25.3288 12.4442 25.5312 13.4505 25.5305C15.4905 25.5305 17.4005 24.7205 18.8405 23.2405C21.8105 20.1905 21.8105 15.2305 18.8405 12.1805C18.143 11.455 17.3059 10.8781 16.3796 10.4845C15.4533 10.091 14.4569 9.88892 13.4505 9.89054Z" fill="#E6E6E6"/>
<path d="M15.3383 21.9495H11.3683C11.1771 21.95 10.9897 21.8956 10.8284 21.7928C10.6671 21.69 10.5387 21.5431 10.4583 21.3695C10.3749 21.1975 10.3429 21.0051 10.3659 20.8154C10.389 20.6256 10.4662 20.4465 10.5883 20.2995L13.8883 16.2495C14.1483 15.9295 14.0283 15.5895 13.9883 15.4895C13.9418 15.3731 13.862 15.273 13.7588 15.2019C13.6556 15.1307 13.5337 15.0916 13.4083 15.0895H13.3583C13.0383 15.0895 12.7483 15.2395 12.5583 15.4995C12.2383 15.9495 11.6083 16.0595 11.1483 15.7395C11.0399 15.6628 10.9476 15.5655 10.8768 15.453C10.806 15.3406 10.7581 15.2153 10.7358 15.0843C10.7135 14.9533 10.7172 14.8192 10.7469 14.6897C10.7765 14.5602 10.8313 14.4378 10.9083 14.3295C11.4683 13.5395 12.3783 13.0695 13.3483 13.0695H13.4783C14.4983 13.1195 15.3883 13.7295 15.8083 14.6595C16.2383 15.6195 16.0983 16.7095 15.4383 17.5195L13.4883 19.9195H15.3283C15.8883 19.9195 16.3383 20.3695 16.3383 20.9295C16.3383 21.4895 15.8983 21.9495 15.3383 21.9495Z" fill="#636363"/>
</svg>
