<svg width="23" height="25" viewBox="0 0 23 25" fill="none" xmlns="http://www.w3.org/2000/svg">
<path d="M13.9117 8.56584L9.32896 1.03337C9.03048 0.524187 8.49495 0.216919 7.90675 0.216919H2.12133C0.848359 0.216919 0.0494613 1.58646 0.672777 2.69262C1.8313 4.7423 3.46642 6.48281 5.43983 7.76694C6.10704 8.28491 6.93227 8.56584 7.78384 8.56584H13.9117Z" fill="#0074BA"/>
<path d="M20.8384 0.216919H15.053C14.4648 0.216919 13.9292 0.524187 13.6308 1.03337L9.04807 8.56584H15.1847C16.0362 8.56584 16.8527 8.28491 17.5287 7.76694C19.504 6.48519 21.1369 4.74693 22.2957 2.69262C22.9103 1.58646 22.1114 0.216919 20.8384 0.216919Z" fill="#00A6ED"/>
<path d="M11.4728 24.7983C16.3408 24.7983 20.287 20.7538 20.287 15.7646C20.287 10.7755 16.3408 6.73096 11.4728 6.73096C6.60482 6.73096 2.65862 10.7755 2.65862 15.7646C2.65862 20.7538 6.60482 24.7983 11.4728 24.7983Z" fill="#FFB02E"/>
<path d="M9.79251 12.5437C9.79251 12.3108 9.885 12.0875 10.0496 11.9229C10.2143 11.7582 10.4376 11.6657 10.6704 11.6657H11.4816C11.7144 11.6657 11.9377 11.7582 12.1024 11.9229C12.267 12.0875 12.3595 12.3108 12.3595 12.5437V18.653C12.3595 18.8859 12.267 19.1092 12.1024 19.2738C11.9377 19.4384 11.7144 19.5309 11.4816 19.5309C11.2488 19.5309 11.0255 19.4384 10.8608 19.2738C10.6962 19.1092 10.6037 18.8859 10.6037 18.653V13.4189C10.3831 13.4021 10.1769 13.3026 10.0265 13.1403C9.87611 12.978 9.79253 12.7649 9.79251 12.5437Z" fill="#6D4534"/>
<path d="M11.4816 23.7097C9.40974 23.7097 7.46078 22.8845 6.00346 21.3832C4.53673 19.8819 3.71992 17.8635 3.72967 15.7646C3.72967 13.6401 4.53735 11.6472 6.00346 10.146C6.71482 9.41085 7.56676 8.82627 8.50862 8.42703C9.45048 8.02779 10.463 7.82205 11.486 7.82205C12.509 7.82205 13.5215 8.02779 14.4634 8.42703C15.4052 8.82627 16.2572 9.41085 16.9685 10.146C19.9886 13.245 19.9886 18.2842 16.9685 21.3832C15.4937 22.8845 13.5447 23.7097 11.4816 23.7097ZM11.4728 8.89938C9.76091 8.89938 8.04021 9.56659 6.7409 10.9098C5.47705 12.2088 4.77399 13.9523 4.78316 15.7646C4.78316 17.5995 5.47671 19.3202 6.7409 20.6195C7.35373 21.2558 8.08872 21.7618 8.90182 22.1073C9.71492 22.4527 10.5894 22.6305 11.4728 22.6299C13.2638 22.6299 14.9406 21.9188 16.2048 20.6195C18.8122 17.9418 18.8122 13.5874 16.2048 10.9098C15.5924 10.2728 14.8575 9.76634 14.0443 9.42083C13.2311 9.07533 12.3564 8.89795 11.4728 8.89938Z" fill="#FCD53F"/>
</svg>
