<svg width="27" height="28" viewBox="0 0 27 28" fill="none" xmlns="http://www.w3.org/2000/svg">
<path d="M16.2679 9.51L11.0479 0.93C10.7079 0.35 10.0979 0 9.42786 0H2.83786C1.38786 0 0.47786 1.56 1.18786 2.82C2.5075 5.15472 4.37001 7.13729 6.61786 8.6C7.37786 9.19 8.31786 9.51 9.28786 9.51H16.2679Z" fill="#0074BA"/>
<path d="M24.1578 0H17.5678C16.8978 0 16.2878 0.35 15.9478 0.93L10.7278 9.51H17.7178C18.6878 9.51 19.6178 9.19 20.3878 8.6C22.6378 7.14 24.4978 5.16 25.8178 2.82C26.5178 1.56 25.6078 0 24.1578 0Z" fill="#00A6ED"/>
<path d="M13.49 28C19.035 28 23.53 23.393 23.53 17.71C23.53 12.027 19.035 7.42004 13.49 7.42004C7.94495 7.42004 3.44995 12.027 3.44995 17.71C3.44995 23.393 7.94495 28 13.49 28Z" fill="#D3883E"/>
<path d="M13.4998 26.76C11.1398 26.76 8.91978 25.82 7.25978 24.11C5.58907 22.3998 4.65867 20.1008 4.66978 17.71C4.66978 15.29 5.58978 13.02 7.25978 11.31C8.07007 10.4726 9.04049 9.80671 10.1133 9.35195C11.1862 8.89719 12.3395 8.66284 13.5048 8.66284C14.67 8.66284 15.8234 8.89719 16.8962 9.35195C17.9691 9.80671 18.9395 10.4726 19.7498 11.31C23.1898 14.84 23.1898 20.58 19.7498 24.11C18.0698 25.82 15.8498 26.76 13.4998 26.76ZM13.4898 9.88999C11.5398 9.88999 9.57978 10.65 8.09978 12.18C6.66016 13.6597 5.85933 15.6456 5.86978 17.71C5.86978 19.8 6.65978 21.76 8.09978 23.24C8.79783 23.9648 9.63504 24.5412 10.5612 24.9347C11.4874 25.3282 12.4835 25.5307 13.4898 25.53C15.5298 25.53 17.4398 24.72 18.8798 23.24C21.8498 20.19 21.8498 15.23 18.8798 12.18C18.1823 11.4544 17.3452 10.8775 16.4189 10.484C15.4926 10.0904 14.4962 9.88837 13.4898 9.88999Z" fill="#F3AD61"/>
<path d="M14.9019 16.275L15.9499 14.465C16.035 14.3163 16.0797 14.1479 16.0797 13.9765C16.0797 13.8051 16.035 13.6368 15.9499 13.488C15.8648 13.3393 15.7417 13.2157 15.5933 13.13C15.4448 13.0443 15.2763 12.9994 15.1049 13H12.0139C11.7604 13.0081 11.5199 13.1146 11.3434 13.2968C11.1669 13.479 11.0682 13.7228 11.0682 13.9765C11.0682 14.2302 11.1669 14.474 11.3434 14.6562C11.5199 14.8385 11.7604 14.9449 12.0139 14.953H13.4169L12.6649 16.264C12.5274 16.4338 12.4519 16.6455 12.4509 16.864C12.4509 17.404 12.8889 17.841 13.4279 17.841C14.0379 17.841 14.5359 18.339 14.5359 18.949C14.5359 19.559 14.0379 20.058 13.4279 20.058C12.9599 20.058 12.5429 19.763 12.3899 19.325C12.3028 19.083 12.1237 18.8852 11.8914 18.7747C11.6592 18.6642 11.3926 18.6499 11.1499 18.735C11.0293 18.7771 10.9181 18.8428 10.823 18.9281C10.7279 19.0135 10.6507 19.1169 10.5958 19.2323C10.5409 19.3477 10.5095 19.4729 10.5033 19.6006C10.4972 19.7282 10.5164 19.8558 10.5599 19.976C10.7725 20.5669 11.1618 21.0781 11.6748 21.4401C12.1879 21.8022 12.8 21.9977 13.4279 22C14.2366 21.9992 15.0119 21.6776 15.5837 21.1058C16.1555 20.534 16.4771 19.7587 16.4779 18.95C16.4766 18.4043 16.3299 17.8688 16.0529 17.3987C15.7759 16.9285 15.3786 16.5407 14.9019 16.275Z" fill="#402A32"/>
</svg>
